<svg class="svgText filled" width="1227" height="108" viewBox="0 0 1227 108" fill="none" xmlns="http://www.w3.org/2000/svg">
        <path d="M3.16159 104C2.68159 104 2.44159 103.76 2.44159 103.28L2.72959 4.35199C2.72959 3.96799 2.92159 3.77598 3.30559 3.77598L30.2336 3.63198C35.5136 3.53599 40.3136 4.78399 44.6336 7.37599C49.0496 9.96798 52.5536 13.472 55.1456 17.888C57.7376 22.208 59.0336 27.008 59.0336 32.288V73.616C59.0336 79.184 57.6896 84.272 55.0016 88.88C52.3136 93.392 48.7136 96.992 44.2016 99.68C39.6896 102.368 34.6016 103.76 28.9376 103.856L3.16159 104ZM20.0096 86.288H28.9376C32.4896 86.288 35.4656 85.04 37.8656 82.544C40.3616 80.048 41.6096 77.072 41.6096 73.616V32.144C41.6096 29.072 40.4576 26.432 38.1536 24.224C35.9456 21.92 33.3056 20.816 30.2336 20.912L20.1536 21.056L20.0096 86.288Z" stroke="#373737" stroke-width="4"/>
        <path d="M82.4595 104C82.0755 104 81.8835 103.76 81.8835 103.28L82.0275 4.35199C82.0275 3.96799 82.2195 3.77598 82.6035 3.77598H128.827C129.211 3.77598 129.403 4.01598 129.403 4.49598V20.624C129.403 21.008 129.211 21.2 128.827 21.2H99.3075V43.664H128.827C129.211 43.664 129.403 43.856 129.403 44.24L129.547 60.512C129.547 60.896 129.355 61.088 128.971 61.088H99.3075V86.288H128.971C129.355 86.288 129.547 86.528 129.547 87.008V103.424C129.547 103.808 129.355 104 128.971 104H82.4595Z" stroke="#373737" stroke-width="4"/>
        <path d="M170 104C169.616 104 169.376 103.76 169.28 103.28L149.408 4.35199C149.312 3.96799 149.504 3.77598 149.984 3.77598H166.256C166.64 3.77598 166.88 3.96799 166.976 4.35199L178.784 70.304L190.304 4.35199C190.4 3.96799 190.64 3.77598 191.024 3.77598H207.152C207.632 3.77598 207.824 3.96799 207.728 4.35199L188.144 103.28C188.048 103.76 187.808 104 187.424 104H170Z" stroke="#373737" stroke-width="4"/>
        <path d="M228.265 104C227.881 104 227.689 103.76 227.689 103.28L227.833 4.35199C227.833 3.96799 228.025 3.77598 228.409 3.77598H274.633C275.017 3.77598 275.209 4.01598 275.209 4.49598V20.624C275.209 21.008 275.017 21.2 274.633 21.2H245.113V43.664H274.633C275.017 43.664 275.209 43.856 275.209 44.24L275.353 60.512C275.353 60.896 275.161 61.088 274.777 61.088H245.113V86.288H274.777C275.161 86.288 275.353 86.528 275.353 87.008V103.424C275.353 103.808 275.161 104 274.777 104H228.265Z" stroke="#373737" stroke-width="4"/>
        <path d="M300.254 104C299.87 104 299.678 103.76 299.678 103.28L299.822 4.49598C299.822 4.01598 300.062 3.77598 300.542 3.77598H316.526C317.006 3.77598 317.246 4.01598 317.246 4.49598L317.102 86.288H346.766C347.246 86.288 347.486 86.528 347.486 87.008V103.28C347.486 103.76 347.246 104 346.766 104H300.254Z" stroke="#373737" stroke-width="4"/>
        <path d="M393.103 105.44C387.919 105.44 383.167 104.144 378.847 101.552C374.623 98.864 371.215 95.36 368.623 91.04C366.031 86.624 364.735 81.776 364.735 76.496L364.879 30.848C364.879 25.568 366.127 20.768 368.623 16.448C371.215 12.128 374.671 8.67198 378.991 6.07999C383.311 3.48799 388.015 2.19199 393.103 2.19199C398.287 2.19199 402.991 3.48799 407.215 6.07999C411.439 8.67198 414.799 12.128 417.295 16.448C419.887 20.768 421.183 25.568 421.183 30.848L421.327 76.496C421.327 81.776 420.031 86.624 417.439 91.04C414.943 95.36 411.535 98.864 407.215 101.552C402.991 104.144 398.287 105.44 393.103 105.44ZM393.103 88.016C395.983 88.016 398.479 86.864 400.591 84.56C402.799 82.16 403.903 79.472 403.903 76.496L403.759 30.848C403.759 27.68 402.751 24.992 400.735 22.784C398.719 20.576 396.175 19.472 393.103 19.472C390.127 19.472 387.583 20.576 385.471 22.784C383.359 24.896 382.303 27.584 382.303 30.848V76.496C382.303 79.664 383.359 82.4 385.471 84.704C387.583 86.912 390.127 88.016 393.103 88.016Z" stroke="#373737" stroke-width="4"/>
        <path d="M444.516 104C444.036 104 443.796 103.76 443.796 103.28L444.084 4.35199C444.084 3.96799 444.276 3.77598 444.66 3.77598H472.308C481.14 3.77598 488.1 6.46398 493.188 11.84C498.372 17.216 500.964 24.512 500.964 33.728C500.964 40.544 499.62 46.448 496.932 51.44C494.244 56.432 490.74 60.272 486.42 62.96C482.1 65.648 477.396 66.992 472.308 66.992H461.364V103.28C461.364 103.76 461.124 104 460.644 104H444.516ZM461.364 49.568H472.308C475.38 49.568 478.02 48.128 480.228 45.248C482.532 42.272 483.684 38.432 483.684 33.728C483.684 29.984 482.676 26.912 480.66 24.512C478.644 22.112 475.86 20.912 472.308 20.912L461.364 21.056V49.568Z" stroke="#373737" stroke-width="4"/>
        <path d="M581.644 105.44C576.364 105.44 571.565 104.144 567.245 101.552C563.021 98.864 559.66 95.312 557.164 90.896C554.668 86.48 553.42 81.536 553.42 76.064L553.565 31.136C553.565 25.856 554.764 21.056 557.164 16.736C559.66 12.32 563.021 8.81599 567.245 6.22399C571.565 3.53599 576.364 2.19199 581.644 2.19199C586.924 2.19199 591.677 3.48799 595.901 6.07999C600.125 8.67198 603.484 12.176 605.98 16.592C608.476 20.912 609.724 25.76 609.724 31.136V37.76C609.724 38.144 609.532 38.336 609.148 38.336H593.021C592.637 38.336 592.445 38.144 592.445 37.76V31.136C592.445 27.968 591.388 25.232 589.276 22.928C587.26 20.624 584.716 19.472 581.644 19.472C578.188 19.472 575.548 20.672 573.724 23.072C571.9 25.376 570.988 28.064 570.988 31.136V76.064C570.988 79.616 571.997 82.496 574.013 84.704C576.125 86.912 578.668 88.016 581.644 88.016C584.716 88.016 587.26 86.816 589.276 84.416C591.388 81.92 592.445 79.136 592.445 76.064V69.44C592.445 69.056 592.637 68.864 593.021 68.864H609.292C609.676 68.864 609.868 69.056 609.868 69.44V76.064C609.868 81.536 608.572 86.48 605.98 90.896C603.484 95.312 600.125 98.864 595.901 101.552C591.677 104.144 586.924 105.44 581.644 105.44Z" stroke="#373737" stroke-width="4"/>
        <path d="M658.558 105.44C653.374 105.44 648.622 104.144 644.302 101.552C640.078 98.864 636.67 95.36 634.078 91.04C631.486 86.624 630.19 81.776 630.19 76.496L630.334 30.848C630.334 25.568 631.582 20.768 634.078 16.448C636.67 12.128 640.126 8.67198 644.446 6.07999C648.766 3.48799 653.47 2.19199 658.558 2.19199C663.742 2.19199 668.446 3.48799 672.67 6.07999C676.894 8.67198 680.254 12.128 682.75 16.448C685.342 20.768 686.638 25.568 686.638 30.848L686.782 76.496C686.782 81.776 685.486 86.624 682.894 91.04C680.398 95.36 676.99 98.864 672.67 101.552C668.446 104.144 663.742 105.44 658.558 105.44ZM658.558 88.016C661.438 88.016 663.934 86.864 666.046 84.56C668.254 82.16 669.358 79.472 669.358 76.496L669.214 30.848C669.214 27.68 668.206 24.992 666.19 22.784C664.174 20.576 661.63 19.472 658.558 19.472C655.582 19.472 653.038 20.576 650.926 22.784C648.814 24.896 647.758 27.584 647.758 30.848V76.496C647.758 79.664 648.814 82.4 650.926 84.704C653.038 86.912 655.582 88.016 658.558 88.016Z" stroke="#373737" stroke-width="4"/>
        <path d="M735.891 105.44C730.707 105.44 725.955 104.144 721.635 101.552C717.411 98.864 714.003 95.36 711.411 91.04C708.819 86.624 707.523 81.776 707.523 76.496L707.667 30.848C707.667 25.568 708.915 20.768 711.411 16.448C714.003 12.128 717.459 8.67198 721.779 6.07999C726.099 3.48799 730.803 2.19199 735.891 2.19199C741.075 2.19199 745.779 3.48799 750.003 6.07999C754.227 8.67198 757.587 12.128 760.083 16.448C762.675 20.768 763.971 25.568 763.971 30.848L764.115 76.496C764.115 81.776 762.819 86.624 760.227 91.04C757.731 95.36 754.323 98.864 750.003 101.552C745.779 104.144 741.075 105.44 735.891 105.44ZM735.891 88.016C738.771 88.016 741.267 86.864 743.379 84.56C745.587 82.16 746.691 79.472 746.691 76.496L746.547 30.848C746.547 27.68 745.539 24.992 743.523 22.784C741.507 20.576 738.963 19.472 735.891 19.472C732.915 19.472 730.371 20.576 728.259 22.784C726.147 24.896 725.091 27.584 725.091 30.848V76.496C725.091 79.664 726.147 82.4 728.259 84.704C730.371 86.912 732.915 88.016 735.891 88.016Z" stroke="#373737" stroke-width="4"/>
        <path d="M787.159 104C786.775 104 786.583 103.76 786.583 103.28L786.727 4.49598C786.727 4.01598 786.968 3.77598 787.448 3.77598H803.431C803.911 3.77598 804.151 4.01598 804.151 4.49598L804.008 86.288H833.672C834.152 86.288 834.391 86.528 834.391 87.008V103.28C834.391 103.76 834.152 104 833.672 104H787.159Z" stroke="#373737" stroke-width="4"/>
        <path d="M906.947 105.44C901.763 105.44 897.011 104.144 892.691 101.552C888.467 98.864 885.059 95.36 882.467 91.04C879.971 86.624 878.723 81.776 878.723 76.496V69.872C878.723 69.392 878.963 69.152 879.443 69.152H895.571C895.955 69.152 896.147 69.392 896.147 69.872V76.496C896.147 79.664 897.203 82.4 899.315 84.704C901.427 86.912 903.971 88.016 906.947 88.016C909.923 88.016 912.467 86.864 914.579 84.56C916.691 82.256 917.747 79.568 917.747 76.496C917.747 72.944 915.443 69.872 910.835 67.28C909.299 66.416 906.899 65.072 903.635 63.248C900.371 61.424 897.299 59.696 894.419 58.064C889.139 54.992 885.203 51.152 882.611 46.544C880.115 41.84 878.867 36.56 878.867 30.704C878.867 25.328 880.163 20.528 882.755 16.304C885.347 11.984 888.755 8.57598 892.979 6.07999C897.299 3.58398 901.955 2.33598 906.947 2.33598C912.035 2.33598 916.691 3.63199 920.915 6.22399C925.235 8.71998 928.643 12.128 931.139 16.448C933.731 20.672 935.027 25.424 935.027 30.704V42.512C935.027 42.896 934.835 43.088 934.451 43.088H918.323C917.939 43.088 917.747 42.896 917.747 42.512L917.603 30.704C917.603 27.344 916.547 24.608 914.435 22.496C912.323 20.384 909.827 19.328 906.947 19.328C903.971 19.328 901.427 20.48 899.315 22.784C897.203 24.992 896.147 27.632 896.147 30.704C896.147 33.872 896.819 36.512 898.163 38.624C899.507 40.736 901.955 42.752 905.507 44.672C905.987 44.96 906.899 45.488 908.243 46.256C909.683 46.928 911.219 47.744 912.851 48.704C914.483 49.568 915.923 50.336 917.171 51.008C918.515 51.68 919.331 52.112 919.619 52.304C924.419 54.992 928.211 58.304 930.995 62.24C933.779 66.08 935.171 70.832 935.171 76.496C935.171 81.968 933.875 86.912 931.283 91.328C928.787 95.648 925.379 99.104 921.059 101.696C916.835 104.192 912.131 105.44 906.947 105.44Z" stroke="#373737" stroke-width="4"/>
        <path d="M970.403 104C970.019 104 969.827 103.76 969.827 103.28V21.2H951.107C950.627 21.2 950.387 20.96 950.387 20.48L950.531 4.35199C950.531 3.96799 950.723 3.77598 951.107 3.77598H1005.83C1006.31 3.77598 1006.55 3.96799 1006.55 4.35199V20.48C1006.55 20.96 1006.35 21.2 1005.97 21.2H987.107L987.251 103.28C987.251 103.76 987.059 104 986.675 104H970.403Z" stroke="#373737" stroke-width="4"/>
        <path d="M1051.68 105.44C1046.59 105.44 1041.88 104.144 1037.56 101.552C1033.24 98.864 1029.79 95.312 1027.2 90.896C1024.7 86.48 1023.45 81.632 1023.45 76.352L1023.74 4.35199C1023.74 3.96799 1023.93 3.77598 1024.32 3.77598H1040.44C1040.83 3.77598 1041.02 3.96799 1041.02 4.35199V76.352C1041.02 79.616 1042.03 82.4 1044.04 84.704C1046.16 86.912 1048.7 88.016 1051.68 88.016C1054.75 88.016 1057.29 86.912 1059.31 84.704C1061.42 82.4 1062.48 79.616 1062.48 76.352V4.35199C1062.48 3.96799 1062.67 3.77598 1063.05 3.77598H1079.18C1079.56 3.77598 1079.76 3.96799 1079.76 4.35199L1080.04 76.352C1080.04 81.728 1078.75 86.624 1076.16 91.04C1073.66 95.456 1070.25 98.96 1065.93 101.552C1061.71 104.144 1056.96 105.44 1051.68 105.44Z" stroke="#373737" stroke-width="4"/>
        <path d="M1103.65 104C1103.17 104 1102.93 103.76 1102.93 103.28L1103.22 4.35199C1103.22 3.96799 1103.41 3.77598 1103.8 3.77598H1149.88C1150.36 3.77598 1150.6 3.96799 1150.6 4.35199V20.624C1150.6 21.008 1150.41 21.2 1150.02 21.2H1120.5V43.52H1150.02C1150.41 43.52 1150.6 43.76 1150.6 44.24L1150.74 60.512C1150.74 60.896 1150.5 61.088 1150.02 61.088H1120.5V103.28C1120.5 103.76 1120.26 104 1119.78 104H1103.65Z" stroke="#373737" stroke-width="4"/>
        <path d="M1177.19 104C1176.71 104 1176.47 103.76 1176.47 103.28L1176.76 4.35199C1176.76 3.96799 1176.95 3.77598 1177.33 3.77598H1223.41C1223.89 3.77598 1224.13 3.96799 1224.13 4.35199V20.624C1224.13 21.008 1223.94 21.2 1223.56 21.2H1194.04V43.52H1223.56C1223.94 43.52 1224.13 43.76 1224.13 44.24L1224.28 60.512C1224.28 60.896 1224.04 61.088 1223.56 61.088H1194.04V103.28C1194.04 103.76 1193.8 104 1193.32 104H1177.19Z" stroke="#373737" stroke-width="4"/>
        </svg>