<svg xmlns="http://www.w3.org/2000/svg" xmlns:xlink="http://www.w3.org/1999/xlink" width="245.201" height="165.209" viewBox="0 0 245.201 165.209">
  <defs>
    <clipPath id="clip-path">
      <rect id="Rectangle_95" data-name="Rectangle 95" width="245.201" height="165.209" fill="none"/>
    </clipPath>
  </defs>
  <g id="Group_574" data-name="Group 574" transform="translate(0 -21)">
    <g id="Group_494" data-name="Group 494" transform="translate(0 21)" clip-path="url(#clip-path)">
      <path id="Path_1" data-name="Path 1" d="M56.6,49.487c0,16.2-12.346,29.137-28.546,29.137C11.36,78.625,0,65.884,0,48.992V0H11.36V30.521a22.527,22.527,0,0,1,18.57-8.989c15.31,0,26.669,12.347,26.669,27.955m-11.457.592c0-10.273-6.915-18.175-16.891-18.175s-17.385,8-17.385,18.373c0,10.174,7.212,18.075,17.385,18.075,9.977,0,16.891-8.1,16.891-18.273"/>
      <path id="Path_2" data-name="Path 2" d="M50.7,46.814a28.646,28.646,0,0,1,57.292,0c0,16-12.248,28.546-28.745,28.546-16.4,0-28.547-12.544-28.547-28.546m45.833,0c0-10.175-7.111-18.175-17.286-18.175-9.977,0-17.088,8-17.088,18.175,0,10.273,7.111,18.273,17.088,18.273,10.175,0,17.286-8,17.286-18.273" transform="translate(9.063 3.265)"/>
      <path id="Path_3" data-name="Path 3" d="M157.737,41.381v32.4H145.884V44.047c0-9.977-5.038-15.8-13.533-15.8-8.791,0-15.607,6.816-15.607,17.483V73.78H104.892V19.748h11.259v8.4c2.767-5.334,9.78-9.879,18.472-9.879,14.125,0,23.114,8.89,23.114,23.115" transform="translate(18.749 3.265)"/>
      <path id="Path_4" data-name="Path 4" d="M58.034,121.617v9.68a14.164,14.164,0,0,1-7.012,1.679c-6.718,0-12.051-4.84-12.644-12.247a18.878,18.878,0,0,1-3.061,4.643,25.082,25.082,0,0,1-18.274,7.6c-9.976,0-16.89-6.322-16.99-15.113A13.525,13.525,0,0,1,4,107.689c4.248-4.247,11.262-5.828,17.78-7.209C28.1,99.2,34.032,98.306,36.7,95.639a4.392,4.392,0,0,0,1.284-3.26c0-3.456-3.358-6.221-11.853-6.221-8.4,0-17.681,3.456-23.608,7.111V82.007a51.9,51.9,0,0,1,23.707-6.124c15.706,0,22.621,6.322,22.621,17.385v23.706c0,3.952,2.567,5.631,5.135,5.631a8.172,8.172,0,0,0,4.05-.988m-19.36-17.582c-2.271,2.271-6.817,3.161-11.556,4.05-5.137.988-10.471,1.974-13.138,4.643a6.2,6.2,0,0,0-1.779,4.345c0,3.753,3.458,6.223,7.8,6.223,4.643,0,9.286-2.271,12.841-5.828a20.062,20.062,0,0,0,5.829-13.433" transform="translate(0.009 13.564)"/>
      <path id="Path_5" data-name="Path 5" d="M106.907,77.365v74.281H95.448V125.371a23.132,23.132,0,0,1-17.681,7.6c-15.508,0-27.065-12.444-27.065-28.447,0-16.1,11.459-28.646,26.965-28.646,7.8,0,14.423,3.16,18.868,8.989V77.365ZM96.93,104.727c0-10.472-7.408-18.373-17.583-18.373-9.975,0-17.087,7.8-17.087,18.175s7.113,17.977,17.087,17.977c10.175,0,17.583-7.606,17.583-17.779" transform="translate(9.063 13.564)"/>
      <path id="Path_6" data-name="Path 6" d="M104.975,105.785V77.14h11.853v29.436c0,9.384,4.444,15.706,14.126,15.706,9.876,0,14.124-6.223,14.124-15.706V77.14h11.852v28.744c0,16.594-9.186,26.867-25.976,26.867-16.6,0-25.98-10.371-25.98-26.966" transform="translate(18.764 13.788)"/>
      <path id="Path_7" data-name="Path 7" d="M211.678,121.617v9.68a14.161,14.161,0,0,1-7.012,1.679c-6.718,0-12.051-4.84-12.644-12.247a18.845,18.845,0,0,1-3.061,4.643,25.082,25.082,0,0,1-18.275,7.6c-9.975,0-16.889-6.322-16.988-15.113a13.524,13.524,0,0,1,3.95-10.174c4.248-4.247,11.262-5.828,17.78-7.209,6.323-1.285,12.248-2.174,14.916-4.841a4.392,4.392,0,0,0,1.284-3.26c0-3.456-3.358-6.221-11.853-6.221-8.4,0-17.681,3.456-23.608,7.111V82.007a51.905,51.905,0,0,1,23.708-6.124c15.7,0,22.619,6.322,22.619,17.385v23.706c0,3.952,2.568,5.631,5.137,5.631a8.17,8.17,0,0,0,4.049-.988m-19.36-17.582c-2.271,2.271-6.817,3.161-11.556,4.05-5.137.988-10.472,1.974-13.138,4.643a6.2,6.2,0,0,0-1.779,4.345c0,3.753,3.458,6.223,7.8,6.223,4.642,0,9.285-2.271,12.84-5.828a20.062,20.062,0,0,0,5.829-13.433" transform="translate(27.472 13.564)"/>
      <path id="Path_8" data-name="Path 8" d="M183.335,25.458c-2.044-6.324-8.492-8.842-9.949-15.4A8.13,8.13,0,0,1,189.26,6.532c1.457,6.56-1.741,14.018-5.924,18.926" transform="translate(30.957 0.029)" fill="#54c8e8"/>
      <path id="Path_9" data-name="Path 9" d="M185.051,28.8c4.74-4.66,4.106-11.553,9.319-15.79a8.13,8.13,0,0,1,10.256,12.616c-5.214,4.239-13.314,4.717-19.575,3.174" transform="translate(33.077 1.999)" fill="#54c8e8"/>
      <path id="Path_10" data-name="Path 10" d="M183.663,33.095c6.6.8,11.589-4,18.155-2.566a8.13,8.13,0,0,1-3.463,15.886c-6.564-1.43-11.991-7.463-14.692-13.32" transform="translate(32.829 5.409)" fill="#54c8e8"/>
      <path id="Path_11" data-name="Path 11" d="M178.788,32.51c2.045,6.324,8.493,8.842,9.949,15.4a8.13,8.13,0,0,1-15.873,3.524c-1.457-6.56,1.741-14.018,5.924-18.926" transform="translate(30.834 5.811)" fill="#54c8e8"/>
      <path id="Path_12" data-name="Path 12" d="M178,28.128c-4.74,4.66-4.1,11.552-9.319,15.79A8.13,8.13,0,1,1,158.428,31.3c5.214-4.239,13.314-4.719,19.575-3.174" transform="translate(27.782 4.884)" fill="#54c8e8"/>
      <path id="Path_13" data-name="Path 13" d="M179.692,23.514c-6.6-.8-11.589,4-18.155,2.568A8.13,8.13,0,0,1,165,10.2c6.564,1.431,11.991,7.463,14.692,13.319" transform="translate(27.73 1.789)" fill="#54c8e8"/>
      <path id="Path_14" data-name="Path 14" d="M199.239,113.456v-5.122h-1.485v-.967h4.009v.967h-1.476v5.122Z" transform="translate(35.347 19.191)"/>
      <path id="Path_15" data-name="Path 15" d="M205.357,112.92l-2.053-3.207-.56,3.751H201.7l.983-6.137h.17l2.6,4.05,2.548-4.05h.171l.974,6.137h-1.038l-.552-3.725-2,3.181Z" transform="translate(36.053 19.184)"/>
    </g>
  </g>
</svg>
