<svg xmlns="http://www.w3.org/2000/svg" xmlns:xlink="http://www.w3.org/1999/xlink" width="635.974" height="22" viewBox="0 0 635.974 22">
  <defs>
    <clipPath id="clip-path">
      <rect id="Rectangle_96" data-name="Rectangle 96" width="19.443" height="21.196" fill="none"/>
    </clipPath>
  </defs>
  <g id="Group_592" data-name="Group 592" transform="translate(-1065.026 -790.211)">
    <g id="Header" transform="translate(1061.026 794.211)">
      <text id="Cart" transform="translate(83 13)" font-size="18" font-family="Montserrat-Regular, Montserrat"><tspan x="-78.39" y="0">Нэмэлт захиалга</tspan></text>
    </g>
    <g id="Group_552" data-name="Group 552" transform="translate(-21.417 424.873)">
      <g id="Group_549" data-name="Group 549" transform="translate(1702.974 366.142)">
        <g id="Group_496" data-name="Group 496" transform="translate(0 0)" clip-path="url(#clip-path)">
          <path id="Path_16" data-name="Path 16" d="M21.444,8.454C20.761,6.34,18.606,5.5,18.119,3.307a2.717,2.717,0,0,1,5.3-1.178c.487,2.192-.582,4.685-1.98,6.325" transform="translate(-10.942 0)" fill="#3dbee3"/>
          <path id="Path_17" data-name="Path 17" d="M29.913,16.908c1.584-1.557,1.372-3.861,3.115-5.277a2.717,2.717,0,0,1,3.428,4.216c-1.742,1.417-4.45,1.577-6.542,1.061" transform="translate(-18.129 -6.68)" fill="#3dbee3"/>
          <path id="Path_18" data-name="Path 18" d="M28.525,31.045c2.2.267,3.873-1.336,6.067-.858A2.717,2.717,0,0,1,33.435,35.5c-2.194-.478-4.008-2.494-4.91-4.451" transform="translate(-17.288 -18.241)" fill="#3dbee3"/>
          <path id="Path_19" data-name="Path 19" d="M19.467,32.347c.683,2.114,2.838,2.955,3.325,5.147a2.717,2.717,0,0,1-5.3,1.178c-.487-2.192.582-4.685,1.98-6.325" transform="translate(-10.526 -19.604)" fill="#3dbee3"/>
          <path id="Path_20" data-name="Path 20" d="M7.834,27.429C6.25,28.986,6.462,31.29,4.72,32.706A2.717,2.717,0,0,1,1.292,28.49c1.742-1.417,4.45-1.577,6.542-1.061" transform="translate(-0.175 -16.46)" fill="#3dbee3"/>
          <path id="Path_21" data-name="Path 21" d="M8.206,14.359c-2.2-.267-3.873,1.336-6.067.858A2.717,2.717,0,0,1,3.3,9.907c2.194.478,4.008,2.494,4.91,4.452" transform="translate(0 -5.966)" fill="#3dbee3"/>
        </g>
      </g>
      <path id="Devider" d="M0,0H441.935" transform="translate(1701 376.74) rotate(180)" fill="none" stroke="#3cbde2" stroke-linecap="square" stroke-miterlimit="10" stroke-width="1"/>
    </g>
  </g>
</svg>
