<svg id="Facebook" xmlns="http://www.w3.org/2000/svg" width="14" height="26" viewBox="0 0 14 26">
  <g id="Facebook-2" data-name="Facebook">
    <path id="Path" d="M13.473.005,10.115,0C6.342,0,3.9,2.511,3.9,6.4v2.95H.528A.529.529,0,0,0,0,9.879v4.275a.529.529,0,0,0,.528.53H3.9V25.47a.529.529,0,0,0,.528.53H8.837a.529.529,0,0,0,.528-.53V14.684h3.948a.529.529,0,0,0,.528-.53l0-4.275a.529.529,0,0,0-.528-.53H9.365v-2.5c0-1.2.285-1.812,1.845-1.812h2.262A.529.529,0,0,0,14,4.5V.536A.529.529,0,0,0,13.473.005Z" fill="#bfbfbf"/>
  </g>
</svg>
