<svg xmlns="http://www.w3.org/2000/svg" xmlns:xlink="http://www.w3.org/1999/xlink" width="311.726" height="34.428" viewBox="0 0 311.726 34.428">
  <defs>
    <clipPath id="clip-path">
      <rect id="Rectangle_119" data-name="Rectangle 119" width="311.726" height="34.428" fill="none"/>
    </clipPath>
  </defs>
  <g id="Group_602" data-name="Group 602" transform="translate(0 0)">
    <g id="Group_601" data-name="Group 601" transform="translate(0 0)" clip-path="url(#clip-path)">
      <path id="Path_1297" data-name="Path 1297" d="M8.158,14.052V7.824H17.3a3.75,3.75,0,0,1,2.574.851,2.851,2.851,0,0,1,.966,2.241,2.9,2.9,0,0,1-.966,2.286,3.75,3.75,0,0,1-2.574.851Zm19.428,2.623a10.391,10.391,0,0,0,1.636-5.759,10.538,10.538,0,0,0-1.278-5.154A9.446,9.446,0,0,0,24.2,2.042,11.7,11.7,0,0,0,18.374.653H0V32.921H8.158V21.133h6.318l7.842,11.788h9.457L22.991,20.328a9.179,9.179,0,0,0,4.595-3.653" transform="translate(0 0.393)" fill="#040504"/>
      <path id="Path_1298" data-name="Path 1298" d="M29.865,25.795V20.058H42.638V12.842H29.865V7.778h18.51L49.317.652h-27.7V32.921H49.764l-.94-7.126Z" transform="translate(13.016 0.393)" fill="#040504"/>
      <path id="Path_1299" data-name="Path 1299" d="M59.629.652,72.492,22.21V32.921h8.335V22.12L93.511.652h-9.1L76.748,14.59,68.907.652Z" transform="translate(35.899 0.393)" fill="#040504"/>
      <path id="Path_1300" data-name="Path 1300" d="M127.435,32.921v-7.35H109.553V.653h-8.246V32.921Z" transform="translate(60.991 0.393)" fill="#040504"/>
      <path id="Path_1301" data-name="Path 1301" d="M147.846,32.921,146.9,25.8H127.947V20.058H140.72V12.843H127.947V7.777h18.51L147.4.653H119.7V32.921Z" transform="translate(72.064 0.393)" fill="#040504"/>
      <path id="Path_1302" data-name="Path 1302" d="M156.481,32.921V11.5L165.4,32.607h5.468l9.008-21.781v22.1H187.9V.653H176.782l-8.425,20.884L159.573.653H148.458V32.921Z" transform="translate(89.377 0.393)" fill="#040504"/>
      <path id="Path_1303" data-name="Path 1303" d="M205.158,32.921l-.942-7.126H185.259V20.058h12.773V12.843H185.259V7.777h18.51l.94-7.124h-27.7V32.921Z" transform="translate(106.569 0.393)" fill="#040504"/>
      <path id="Path_1304" data-name="Path 1304" d="M81.475,8.49A15.759,15.759,0,0,0,79.1,17.006a15.879,15.879,0,0,0,2.353,8.515,16.439,16.439,0,0,0,6.589,6,20.446,20.446,0,0,0,9.567,2.2,22.211,22.211,0,0,0,7.821-1.344,2.31,2.31,0,0,0,.316-.147l1.367,2.023,3.928-10.4-11.115-.235,1.424,2.107a12.108,12.108,0,0,1-3.516.514,11.16,11.16,0,0,1-5.266-1.21,8.838,8.838,0,0,1-4.862-8.021A8.783,8.783,0,0,1,89,12.3,9.152,9.152,0,0,1,92.59,8.983a10.95,10.95,0,0,1,5.2-1.21,10.785,10.785,0,0,1,4.236.806,12.126,12.126,0,0,1,3.832,2.78l5.2-5.737A13.89,13.89,0,0,0,105.3,1.656,21.532,21.532,0,0,0,97.519.289a20.1,20.1,0,0,0-9.478,2.2,16.674,16.674,0,0,0-6.567,6" transform="translate(47.621 0.174)" fill="#040504"/>
      <path id="Path_1305" data-name="Path 1305" d="M71.624,28.632l-5.2-5.737a12.083,12.083,0,0,1-3.832,2.778,10.751,10.751,0,0,1-4.236.807,10.932,10.932,0,0,1-5.2-1.211,9.148,9.148,0,0,1-3.585-3.315,8.787,8.787,0,0,1-1.3-4.707,8.838,8.838,0,0,1,4.862-8.021A11.161,11.161,0,0,1,58.4,8.015a12.082,12.082,0,0,1,3.515.516L60.5,10.638,71.611,10.4,67.683,0,66.315,2.023A2.516,2.516,0,0,0,66,1.874,22.238,22.238,0,0,0,58.18.53a20.472,20.472,0,0,0-9.569,2.2,16.464,16.464,0,0,0-6.589,6.006,15.878,15.878,0,0,0-2.352,8.515,15.77,15.77,0,0,0,2.374,8.515,16.688,16.688,0,0,0,6.567,6.006,20.1,20.1,0,0,0,9.478,2.2A21.566,21.566,0,0,0,65.865,32.6a13.88,13.88,0,0,0,5.759-3.967" transform="translate(23.883 0)" fill="#040504"/>
    </g>
  </g>
</svg>
