<svg id="Group_560" data-name="Group 560" xmlns="http://www.w3.org/2000/svg" xmlns:xlink="http://www.w3.org/1999/xlink" width="51.565" height="46.962" viewBox="0 0 51.565 46.962">
  <defs>
    <clipPath id="clip-path">
      <rect id="Rectangle_114" data-name="Rectangle 114" width="51.565" height="46.962" fill="none" stroke="#000" stroke-width="1"/>
    </clipPath>
  </defs>
  <g id="Group_559" data-name="Group 559" clip-path="url(#clip-path)">
    <path id="Path_1287" data-name="Path 1287" d="M25.281,4.238c.917-.776,1.728-1.585,2.655-2.226A11.61,11.61,0,1,1,35.46,23.2a13.835,13.835,0,0,1-1.948.009c-.353-.016-.435.082-.434.43q.018,6.853.008,13.706a2.722,2.722,0,0,1-3,2.988q-13.56,0-27.119,0A2.707,2.707,0,0,1,0,37.364q0-16.95,0-33.9A2.717,2.717,0,0,1,2.975.505Q11.779.5,20.583.5a1.567,1.567,0,0,1,1.172.462c1.178,1.119,2.378,2.214,3.527,3.279M20.322,1.843h-.474q-8.464,0-16.927,0c-1.09,0-1.594.516-1.594,1.63q0,16.927,0,33.855c0,1.174.487,1.665,1.656,1.665q13.561,0,27.123,0c1.148,0,1.63-.486,1.63-1.631q0-6.756,0-13.513v-.786l-3.705-1.589c.139.34.274.667.407,1,.215.534.11.908-.3,1.067-.383.149-.723-.038-.928-.542-.429-1.053-.855-2.107-1.266-3.167-.267-.687.009-1.087.735-1.087,1.122,0,2.244.007,3.366.015.572,0,.892.253.892.677s-.315.668-.891.67c-.423,0-.847,0-1.27,0a.385.385,0,0,0,.177.236,9.848,9.848,0,0,0,10.088.443,9.735,9.735,0,0,0,5.628-9.559,9.683,9.683,0,0,0-6.132-9,10.244,10.244,0,0,0-14.4,9.428c-.005.553-.2.769-.762.783-.683.017-1.366.015-2.049.016-.828,0-1-.173-1-1q0-4.488,0-8.976V1.843m1.374,9.28c.305,0,.548-.01.79,0s.342-.081.357-.333a11.581,11.581,0,0,1,1.585-5.121.512.512,0,0,0-.086-.468c-.394-.409-.823-.783-1.242-1.168-.447-.411-.9-.82-1.4-1.283Z" transform="translate(3.316 3.315)" stroke="#000" stroke-width="1"/>
    <path id="Path_1288" data-name="Path 1288" d="M99.783,171.3q-2.947,0-5.893,0c-.177,0-.412.038-.519-.056-.2-.174-.438-.433-.44-.658,0-.2.282-.417.476-.585.077-.067.25-.029.38-.029h12.128a1.941,1.941,0,0,1,.292.008.657.657,0,0,1,.005,1.309,2.777,2.777,0,0,1-.437.013H99.783" transform="translate(-80.548 -150.064)" stroke="#000" stroke-width="1"/>
    <path id="Path_1289" data-name="Path 1289" d="M99.617,290.452H93.673a2.551,2.551,0,0,1-.437-.017.663.663,0,0,1,.031-1.322,3.671,3.671,0,0,1,.389-.007h11.887a2.432,2.432,0,0,1,.389.01.664.664,0,0,1,.063,1.313,1.67,1.67,0,0,1-.435.024q-2.972,0-5.943,0" transform="translate(-80.279 -257.579)" stroke="#000" stroke-width="1"/>
    <path id="Path_1290" data-name="Path 1290" d="M99.513,229.108c2.011,0,4.022-.011,6.032.013a1.275,1.275,0,0,1,.815.3.622.622,0,0,1-.377.987,2.059,2.059,0,0,1-.484.035q-5.943,0-11.886,0c-.081,0-.162,0-.244,0-.5-.022-.795-.273-.79-.673s.3-.646.8-.647q3.065-.006,6.131,0v-.008" transform="translate(-80.231 -203.436)" stroke="#000" stroke-width="1"/>
    <path id="Path_1291" data-name="Path 1291" d="M99.58,349.531H93.636a2.17,2.17,0,0,1-.437-.018.662.662,0,0,1-.014-1.3,1.823,1.823,0,0,1,.436-.023h11.984a1.64,1.64,0,0,1,.388.02.664.664,0,0,1-.033,1.313,2.484,2.484,0,0,1-.437.013H99.58" transform="translate(-80.291 -310.895)" stroke="#000" stroke-width="1"/>
    <path id="Path_1292" data-name="Path 1292" d="M347.332,52.031h3.206c.146,0,.293-.007.439,0a.665.665,0,0,1,.682.677.629.629,0,0,1-.651.657c-1.447.017-2.894.02-4.341,0a.632.632,0,0,1-.651-.705q-.005-3.756,0-7.512a.639.639,0,0,1,.653-.7c.395,0,.655.272.656.744.007,2.065,0,4.13,0,6.2v.638" transform="translate(-308.937 -36.801)" stroke="#000" stroke-width="1"/>
    <path id="Path_1293" data-name="Path 1293" d="M51.155,228.537a2.834,2.834,0,0,1,.722.237.63.63,0,0,1,.044.944,1.448,1.448,0,0,1-1.582-.015.632.632,0,0,1,.075-.942,2.972,2.972,0,0,1,.741-.224" transform="translate(-41.955 -202.923)" stroke="#000" stroke-width="1"/>
    <path id="Path_1294" data-name="Path 1294" d="M51.009,168.88a2.8,2.8,0,0,1,.811.414.579.579,0,0,1-.1.863,1.55,1.55,0,0,1-1.471,0,.579.579,0,0,1-.1-.863,2.919,2.919,0,0,1,.864-.415" transform="translate(-41.799 -149.087)" stroke="#000" stroke-width="1"/>
    <path id="Path_1295" data-name="Path 1295" d="M51.55,291.3c-.395.025-.794-.037-.882-.481-.043-.22.1-.668.23-.7a3.445,3.445,0,0,1,1.346-.023c.135.025.306.466.267.683-.088.5-.531.537-.961.517" transform="translate(-42.402 -258.429)" stroke="#000" stroke-width="1"/>
    <path id="Path_1296" data-name="Path 1296" d="M50.976,349.46a2.816,2.816,0,0,1-.806-.41.581.581,0,0,1,.088-.867,1.444,1.444,0,0,1,1.506.02.577.577,0,0,1,.049.868,3.006,3.006,0,0,1-.837.389" transform="translate(-41.818 -310.712)" stroke="#000" stroke-width="1"/>
  </g>
</svg>
