<svg id="Instagram" xmlns="http://www.w3.org/2000/svg" width="26" height="26" viewBox="0 0 26 26">
  <g id="Instagram-2" data-name="Instagram">
    <path id="Shape" d="M13,26c-3.494,0-3.958-.015-5.359-.076a9.6,9.6,0,0,1-3.155-.6,6.437,6.437,0,0,1-2.3-1.5,6.359,6.359,0,0,1-1.5-2.306,9.523,9.523,0,0,1-.6-3.154C.015,16.958,0,16.494,0,13,0,9.488.015,9.027.081,7.639a9.592,9.592,0,0,1,.6-3.155,6.425,6.425,0,0,1,1.5-2.3A6.326,6.326,0,0,1,4.491.68a9.54,9.54,0,0,1,3.155-.6C9.048.015,9.512,0,13.005,0c3.515,0,3.976.015,5.365.081a9.592,9.592,0,0,1,3.155.6,6.432,6.432,0,0,1,2.3,1.5,6.324,6.324,0,0,1,1.5,2.306,9.512,9.512,0,0,1,.6,3.154C25.995,9.026,26,9.477,26,13c0,3.492-.015,3.956-.076,5.359a9.6,9.6,0,0,1-.6,3.154,6.666,6.666,0,0,1-3.805,3.8,9.549,9.549,0,0,1-3.154.6C16.957,25.985,16.493,26,13,26Zm.014-23.639c-3.538,0-3.9.016-5.252.076a7.135,7.135,0,0,0-2.413.447,4.023,4.023,0,0,0-1.494.969A3.985,3.985,0,0,0,2.88,5.349a7.164,7.164,0,0,0-.446,2.412c-.062,1.382-.076,1.838-.076,5.252,0,3.537.016,3.9.076,5.251a7.171,7.171,0,0,0,.446,2.413,4.031,4.031,0,0,0,.971,1.493,4.028,4.028,0,0,0,1.493.97,7.166,7.166,0,0,0,2.413.446c1.383.062,1.839.076,5.253.076,3.538,0,3.9-.016,5.252-.076a7.17,7.17,0,0,0,2.413-.446,4.319,4.319,0,0,0,2.47-2.469,7.167,7.167,0,0,0,.446-2.413c.06-1.351.077-1.714.077-5.246s-.016-3.9-.076-5.252a7.169,7.169,0,0,0-.446-2.412,4.029,4.029,0,0,0-.971-1.494,4.014,4.014,0,0,0-1.493-.969,7.13,7.13,0,0,0-2.413-.447C16.886,2.376,16.429,2.362,13.015,2.362Z" fill="#bfbfbf"/>
    <path id="Shape-2" data-name="Shape" d="M6.5,13A6.5,6.5,0,1,1,13,6.5,6.507,6.507,0,0,1,6.5,13Zm0-10.716A4.216,4.216,0,1,0,10.716,6.5,4.221,4.221,0,0,0,6.5,2.283Z" transform="translate(7 7)" fill="#bfbfbf"/>
    <path id="Path" d="M4,2A2,2,0,1,1,2,0,2,2,0,0,1,4,2Z" transform="translate(18 5)" fill="#bfbfbf" />
  </g>
</svg>
