<svg xmlns="http://www.w3.org/2000/svg" xmlns:xlink="http://www.w3.org/1999/xlink" width="331.769" height="361.682" viewBox="0 0 331.769 361.682">
  <defs>
    <clipPath id="clip-path">
      <rect id="Rectangle_96" data-name="Rectangle 96" width="331.769" height="361.682" fill="none"/>
    </clipPath>
  </defs>
  <g id="tsetsteg_tom" data-name="tsetsteg tom" transform="translate(0 0)">
    <g id="Group_496" data-name="Group 496" transform="translate(0 0)" clip-path="url(#clip-path)">
      <path id="Path_16" data-name="Path 16" d="M75.9,144.244C64.242,108.181,27.473,93.823,19.164,56.415a46.361,46.361,0,0,1,90.518-20.1c8.308,37.408-9.928,79.938-33.785,107.928" transform="translate(103.303 0.002)" fill="#3dbee3"/>
      <path id="Path_17" data-name="Path 17" d="M29.913,111.46C56.942,84.888,53.326,45.578,83.057,21.413a46.36,46.36,0,0,1,58.488,71.945c-29.731,24.172-75.925,26.9-111.632,18.1" transform="translate(171.161 63.068)" fill="#3dbee3"/>
      <path id="Path_18" data-name="Path 18" d="M28.525,46.268c37.623,4.551,66.09-22.8,103.532-14.64a46.36,46.36,0,0,1-19.749,90.592c-37.435-8.154-68.382-42.55-83.782-75.951" transform="translate(163.219 172.215)" fill="#3dbee3"/>
      <path id="Path_19" data-name="Path 19" d="M53.191,32.347c11.663,36.063,48.432,50.421,56.733,87.829a46.361,46.361,0,0,1-90.518,20.1C11.1,102.867,29.335,60.337,53.191,32.347" transform="translate(99.377 185.087)" fill="#3dbee3"/>
      <path id="Path_20" data-name="Path 20" d="M129.035,31.752C102.006,58.324,105.629,97.627,75.891,121.8A46.36,46.36,0,1,1,17.4,49.854c29.731-24.172,75.925-26.908,111.632-18.1" transform="translate(1.654 155.407)" fill="#3dbee3"/>
      <path id="Path_21" data-name="Path 21" d="M140.025,86.875c-37.623-4.551-66.09,22.8-103.532,14.64a46.363,46.363,0,0,1,19.749-90.6c37.435,8.16,68.382,42.557,83.782,75.958" transform="translate(0 56.329)" fill="#3dbee3"/>
    </g>
  </g>
</svg>
