<svg id="Twitter" xmlns="http://www.w3.org/2000/svg" width="28" height="23" viewBox="0 0 28 23">
  <g id="Twitter-2" data-name="Twitter">
    <path id="Path" d="M28,2.723a11.866,11.866,0,0,1-3.308.916A5.76,5.76,0,0,0,27.218.432a11.4,11.4,0,0,1-3.64,1.4A5.727,5.727,0,0,0,13.648,5.8a6.039,6.039,0,0,0,.133,1.323A16.19,16.19,0,0,1,1.949,1.058a5.892,5.892,0,0,0-.786,2.933,5.829,5.829,0,0,0,2.55,4.823A5.622,5.622,0,0,1,1.12,8.1v.064a5.815,5.815,0,0,0,4.6,5.7,5.67,5.67,0,0,1-1.5.191,5.022,5.022,0,0,1-1.087-.1A5.8,5.8,0,0,0,8.491,18a11.455,11.455,0,0,1-7.117,2.475A10.636,10.636,0,0,1,0,20.4,16.033,16.033,0,0,0,8.806,23c10.563,0,16.338-8.846,16.338-16.514,0-.257-.009-.5-.021-.75A11.522,11.522,0,0,0,28,2.723Z" fill="#bfbfbf"/>
  </g>
</svg>
