<svg xmlns="http://www.w3.org/2000/svg" xmlns:xlink="http://www.w3.org/1999/xlink" width="664.417" height="90" viewBox="0 0 664.417 90">
  <defs>
    <clipPath id="clip-path">
      <rect id="Rectangle_96" data-name="Rectangle 96" width="19.443" height="21.196" fill="none"/>
    </clipPath>
  </defs>
  <g id="Group_596" data-name="Group 596" transform="translate(-1058 -296.74)">
    <g id="Group_595" data-name="Group 595">
      <g id="Header" transform="translate(1055 300.74)">
        <text id="Cart" transform="translate(101 13)" font-size="18" font-family="Montserrat-Regular, Montserrat"><tspan x="-97.092" y="0">Захиалгын мэдээлэл</tspan></text>
      </g>
      <g id="Group_550" data-name="Group 550" transform="translate(0 -69)">
        <g id="Group_549" data-name="Group 549" transform="translate(1702.974 366.142)">
          <g id="Group_496" data-name="Group 496" transform="translate(0 0)" clip-path="url(#clip-path)">
            <path id="Path_16" data-name="Path 16" d="M21.444,8.454C20.761,6.34,18.606,5.5,18.119,3.307a2.717,2.717,0,0,1,5.3-1.178c.487,2.192-.582,4.685-1.98,6.325" transform="translate(-10.942 0)" fill="#3dbee3"/>
            <path id="Path_17" data-name="Path 17" d="M29.913,16.908c1.584-1.557,1.372-3.861,3.115-5.277a2.717,2.717,0,0,1,3.428,4.216c-1.742,1.417-4.45,1.577-6.542,1.061" transform="translate(-18.129 -6.68)" fill="#3dbee3"/>
            <path id="Path_18" data-name="Path 18" d="M28.525,31.045c2.2.267,3.873-1.336,6.067-.858A2.717,2.717,0,0,1,33.435,35.5c-2.194-.478-4.008-2.494-4.91-4.451" transform="translate(-17.288 -18.241)" fill="#3dbee3"/>
            <path id="Path_19" data-name="Path 19" d="M19.467,32.347c.683,2.114,2.838,2.955,3.325,5.147a2.717,2.717,0,0,1-5.3,1.178c-.487-2.192.582-4.685,1.98-6.325" transform="translate(-10.526 -19.604)" fill="#3dbee3"/>
            <path id="Path_20" data-name="Path 20" d="M7.834,27.429C6.25,28.986,6.462,31.29,4.72,32.706A2.717,2.717,0,0,1,1.292,28.49c1.742-1.417,4.45-1.577,6.542-1.061" transform="translate(-0.175 -16.46)" fill="#3dbee3"/>
            <path id="Path_21" data-name="Path 21" d="M8.206,14.359c-2.2-.267-3.873,1.336-6.067.858A2.717,2.717,0,0,1,3.3,9.907c2.194.478,4.008,2.494,4.91,4.452" transform="translate(0 -5.966)" fill="#3dbee3"/>
          </g>
        </g>
        <path id="Devider" d="M0,0H405.252" transform="translate(1701 376.74) rotate(180)" fill="none" stroke="#3cbde2" stroke-linecap="square" stroke-miterlimit="10" stroke-width="1"/>
      </g>
    </g>
    <g id="Group_569" data-name="Group 569">
      <g id="button_confirm_price" data-name="button confirm &amp; price" transform="translate(1059.391 341.74)">
        <g id="total_price" data-name="total price" transform="translate(0)">
          <g id="bg" fill="#f9fafd" stroke="#32c5ff" stroke-width="1">
            <rect width="635.521" height="45" rx="6" stroke="none"/>
            <rect x="0.5" y="0.5" width="634.521" height="44" rx="5.5" fill="none"/>
          </g>
        </g>
      </g>
      <path id="Devider-2" data-name="Devider" d="M0,0H43.146" transform="translate(1287.94 342.74) rotate(90)" fill="none" stroke="#2fb8fb" stroke-linecap="square" stroke-miterlimit="10" stroke-width="1"/>
      <path id="Devider-3" data-name="Devider" d="M0,0H43.146" transform="translate(1480.602 342.74) rotate(90)" fill="none" stroke="#2fb8fb" stroke-linecap="square" stroke-miterlimit="10" stroke-width="1"/>
      <text id="Төлөх_дүн" data-name="Төлөх дүн" transform="translate(1553.024 356.971)" fill="#676767" font-size="10" font-family="Montserrat-Regular, Montserrat"><tspan x="-51.08" y="0">Төлөх дүн</tspan></text>
      <text id="Тоо_хэмжээ" data-name="Тоо хэмжээ" transform="translate(1351.721 356.971)" fill="#676767" font-size="10" font-family="Montserrat-Regular, Montserrat"><tspan x="-58.58" y="0">Тоо хэмжээ</tspan></text>
      <text id="Хэмжээ" transform="translate(1121.853 356.971)" fill="#676767" font-size="10" font-family="Montserrat-Regular, Montserrat"><tspan x="-39.09" y="0">Хэмжээ</tspan></text>
    </g>
  </g>
</svg>
