<svg xmlns="http://www.w3.org/2000/svg" width="224.612" height="27" viewBox="0 0 224.612 27">
  <g id="Group_600" data-name="Group 600" transform="translate(-1484.495 -364.5)">
    <g id="name" transform="translate(1484.639 357.209)">
      <g id="bg" transform="translate(-0.144 7.291)" fill="#fff" stroke="#a6a5a4" stroke-width="1" opacity="0.4">
        <rect width="224.612" height="27" rx="6" stroke="none"/>
        <rect x="0.5" y="0.5" width="223.612" height="26" rx="5.5" fill="none"/>
      </g>
    </g>
    <g id="Arrow-down" transform="translate(1681.695 375.003)">
      <g id="Arrow-down-2" data-name="Arrow-down">
        <path id="Path" d="M7.2,8.473a.99.99,0,0,1-.713-.3L.3,1.777A1.065,1.065,0,0,1,.3.3.987.987,0,0,1,1.722.3L7.2,5.961,12.683.305a.987.987,0,0,1,1.426,0,1.064,1.064,0,0,1,0,1.472L7.916,8.169A.99.99,0,0,1,7.2,8.473Z" fill="#3dbee3"/>
      </g>
    </g>
  </g>
</svg>
